<svg xmlns="http://www.w3.org/2000/svg" viewBox="0 0 2048 2048" width="512" height="512" preserveAspectRatio="none" xmlns:v="https://vecta.io/nano"><path fill="#042b76" d="M253.24 0h1541.6c7.43 3.762 17.05 4.619 24.99 7.887 29.78 12.116 53.08 36.208 64.21 66.374 8.77 24.054 6.94 51.121 6.94 76.413v79.214l.01 250.439-.01 729.163-.03 488.31.03 155-.14 83.76c-.72 48.99-33.71 93.27-80.93 106.89-3.06.88-9.78 2.99-12.29 4.55H250.179c-7.13-3.76-18.303-6.53-26.146-9.98-41.345-18.18-66.528-59.06-66.773-103.85l-.25-111.69-.004-209.4-.004-635.676.012-601.224.004-152.383c.001-41.044-1.038-83.298 1.255-123.974C160.411 61.9 191.35 22.69 226.101 8.708 234.956 5.145 244.469 3.58 253.24 0z"/><path fill="#fefefe" d="M444.564 1391.92l1365.956.03-.13 375.34.02 110.21c0 19.07.43 38.34-.45 57.39-.4 8.71-2.36 16.29-8.78 22.61-15.22 14.97-45.71 10.69-66.85 10.66l-76.34-.09-247.09-.01-752.706-.03-262.311.03h-81.266c-14.479 0-30.56.43-44.857-.68-9.234-.71-15.418-2.14-21.806-8.81-5.331-5.57-9.564-12.35-9.887-20.28-.733-17.98-.389-37.08-.368-55.06l.088-114.83-.011-376.38 206.788-.1z"/><path fill="#d2dcfc" d="M237.776 1392.02l206.788-.1a1755.48 1755.48 0 0 0 35.907 160.3c16.538 55.74 31.379 105.04 52.753 159.58a1697.86 1697.86 0 0 0 23.852 57.85c3.487 7.95 14.244 30.92 15.987 38.09 2.352-.25 3.384-.6 5.637-.11l-3.589 1.08c-.211 7.17 75.238 149.87 83.083 159.32l-262.311.03h-81.266c-14.479 0-30.56.43-44.857-.68-9.234-.71-15.418-2.14-21.806-8.81-5.331-5.57-9.564-12.35-9.887-20.28-.733-17.98-.389-37.08-.368-55.06l.088-114.83-.011-376.38z"/><path fill="#6564f8" d="M480.471 1552.22c16.538 55.74 31.379 105.04 52.753 159.58a1697.86 1697.86 0 0 0 23.852 57.85c3.487 7.95 14.244 30.92 15.987 38.09l-98.355.15c-17.84.02-35.768.41-53.415-.55-19.793-.81-22.115-12.32-22.027-29.35l.636-207.96c.484-25.68 61.297-17.95 80.569-17.81z"/><path d="M480.471 1552.22l100.078-.05c13.582-.02 55.468-2.91 67.752 5.55 8.415 5.8 6.254 30.27 6.232 41.39l-.03 52.7-.029 83.87c.02 15.92 2.052 51.57-4.08 65-12.756 10.88-53.36 7.12-71.694 6.95-2.253-.49-3.285-.14-5.637.11-1.743-7.17-12.5-30.14-15.987-38.09a1697.86 1697.86 0 0 1-23.852-57.85c-21.374-54.54-36.215-103.84-52.753-159.58zm386.058-9.85c35.251-1.82 83.906-.39 119.861-.39l231.87.02h244.16l122.77-.01c33.6.06 53.31 31.96 35.75 61.59-5.71 9.64-15.08 14.71-25.95 17.23-15.21 2.09-61.08 1.05-78.3 1.06H1358.3l-316.89-.01c-53.504 0-107.105.06-160.603-.06-7.116-.56-19.94-.58-25.992-4.06-34.229-19.68-27.152-67 11.714-75.37zm6.174 196.02c15.009-1.23 45.59-.29 61.906-.28l125.191.04 138.89-.04c24.23-.01 50.33-.69 74.34.5 47.76 2.35 54.89 69.95 2.35 79.31-84.32 1.52-173.06.08-257.71.12l-95.128.03c-17.235 0-35.257.34-52.432-.52-8.153-.41-14.524-2.32-21.148-7.32a40.68 40.68 0 0 1-15.671-26.68c-3.559-25.51 14.934-43.11 39.412-45.16z" fill="#92b2f4"/><path fill="#fe8f00" d="M625.872 296.982l833.358-.117 229.43-.001 122.18-.099c-1.43 29.395-.45 66.76-.45 96.652l.01 177.97.01 140.247c0 19.783-1.07 54.309.31 73.202a268.91 268.91 0 0 0-92.12 21.11c-22.25 9.624-44.17 23.164-66.14 34.121-42.04 20.972-94.53 23.461-139.95 14.011-32.05-6.667-61.75-26.88-90.79-41.396-19.05-9.52-33.39-14.456-53.54-20.242-59.32-13.404-136.24-11.061-190.78 15.305-58.4 28.233-79.72 51.041-149.54 51.406-71.795.376-92.367-21.731-153.213-51.324-54.368-26.443-135.857-29.639-195.077-14.169-13.262 4.065-29.144 9.211-41.408 15.266-52.222 25.781-76.95 48.114-138.915 50.114a253.18 253.18 0 0 1-61.341-5.033c-25.381-6.43-47.157-17.932-69.811-30.702-45.35-25.565-79.16-35.564-130.797-38.718 1.047-18.884.447-41.538.446-60.778l.002-104.737-.073-322.156 388.199.068z"/><path fill="#fecb51" d="M679.57 793.658c-1.002-7.938-.07-24.942.586-33.116A343.76 343.76 0 0 1 800.43 524.377a344.04 344.04 0 0 1 253.69-80.805c90.63 7.761 174.45 51.235 233 120.843 44.55 52.669 72.23 117.524 79.43 186.132 1.18 11.369 2.59 30.733 1.63 41.893-59.32-13.404-136.24-11.061-190.78 15.305-58.4 28.233-79.72 51.041-149.54 51.406-71.795.376-92.367-21.731-153.213-51.324-54.368-26.443-135.857-29.639-195.077-14.169z"/><path fill="#fe5f52" d="M237.673 296.914l388.199.068c-10.8 25.681-79.729 152.058-79.011 172.91 18.504-6.53 47.207-14.235 66.246-5.708 31.98 14.323 30.317 63.664-4.607 73.37-14.117 4.025-28.871 3.739-41.847 11.275-17.531 9.499-30.556 25.126-40.868 41.938-9.782 15.946-15.811 25.072-34.818 30.594a1643.36 1643.36 0 0 0-38.097 152.984l-9.235 50.2c-1.454 8.292-3.402 22.092-5.729 29.46-25.381-6.43-47.157-17.932-69.811-30.702-45.35-25.565-79.16-35.564-130.797-38.718 1.047-18.884.447-41.538.446-60.778l.002-104.737-.073-322.156z"/><path d="M490.967 621.361c-31.084 2.701-39.204-19.134-53.597-40.621-8.984-13.008-19.362-23.097-32.576-31.439-18.297-11.552-42.725-5.184-58.571-19.752a39.88 39.88 0 0 1-12.93-28.116c-.236-10.787 3.927-21.205 11.532-28.858 7.482-7.706 17.734-12.1 28.473-12.207 45.628-.514 80.995 21.705 112.139 52.683 13.163-17.345 41.208-35.06 61.424-43.159 18.504-6.53 47.207-14.235 66.246-5.708 31.98 14.323 30.317 63.664-4.607 73.37-14.117 4.025-28.871 3.739-41.847 11.275-17.531 9.499-30.556 25.126-40.868 41.938-9.782 15.946-15.811 25.072-34.818 30.594zM1562.43 513.165c19.66-20.857 41.72-36.723 69.17-45.817 27.94-9.258 71.2-14.634 81.26 22.475a39.54 39.54 0 0 1-4.41 30.943c-12.87 21.279-31.75 17.701-52.8 22.864-46.84 17.97-52.48 65.986-80.46 75.962-5.75 2.049-12.4 2.387-18.39 1.41-22.25-3.624-30.24-24.529-41.96-40.675-7.49-10.327-16.92-21.068-27.63-28.16-18.22-12.066-35.95-8.57-53.44-16.839-9.37-4.427-17.7-12.547-20.83-22.595-3.31-10.589-1.25-23.519 4.32-33 5.97-10.147 15.32-15.695 26.46-18.555 44.31-4.283 89.95 19.374 118.71 51.987z" fill="#042b76"/><path fill="#66cbcf" d="M428.358 933.428c50.507 11.894 130.505 5.165 175.425-16.712 56.556-27.544 88.693-54.904 156.451-52.301 22.973.883 39.723 1.392 62.695 9.081 18.202 6.093 35.519 15.117 52.245 24.573 37.354 21.117 70.398 34.648 113.668 39.123 46.188 4.778 103.068.833 145.348-17.762 65.04-28.606 81.82-54.195 157.17-55.005 79.7-.856 96.93 25.733 164.6 55.528 37.89 16.686 87.17 20.728 128.98 18.447 31.87-1.477 63.19-8.817 92.39-21.651 55.16-24.603 67.21-44.799 132.93-52.001l.09 183.072c-32.3 3.24-59.22 6.88-89.32 20.12-51.69 22.74-81.83 51.72-141.69 53.87-40.88 1.46-72.98-1.48-110.51-20.85-21.3-11-41.95-23.51-63.98-32.95-34.92-14.97-73.66-20.93-111.5-20.62-36.4.3-73.78 5.49-107.43 19.78-21.55 9.15-43.2 21.9-64.14 32.92-39.35 20.71-76.75 24.34-120.16 21.16-49.353-3.61-79.61-27.11-121.861-47.99-40.683-20.11-86.651-27.11-131.738-25.61-32.113 1.06-63.075 5.45-93.16 17.25-14.78 5.79-35.343 15.82-48.931 23.89-42.018 24.95-76.927 35.36-126.334 33.28-17.391-.74-43.602-3.52-60.042-10.58.767-5.03.779-13.06.773-18.32-.057-53.57 4.265-106.341 8.031-159.742z"/><path fill="#fefefe" d="M767.49 79.999l677.51-.098 221.39.002 71.47-.047c17.89-.002 49.66-3.374 62.61 9.377s10.08 42.513 10.02 59.857l-.17 67.47c-10.22 1.252-38.77.537-50.53.525l-98.29-.075-333.06.005-1090.83-.263c.782-23.84-.179-48.081.028-72.48.21-24.694-4.945-60.324 30.166-63.661 17.438-1.657 37.287-.715 55.029-.7l102.119.062 342.538.026z"/><path fill="#d2dcfc" d="M237.61 216.751c.782-23.84-.179-48.081.028-72.48.21-24.694-4.945-60.324 30.166-63.661 17.438-1.657 37.287-.715 55.029-.7l102.119.062 342.538.026c-4.172 8.537-29.696 41.294-36.959 51.456-19.466 27.604-38.201 55.717-56.184 84.309l109.473.431 178.817.008 541.573-.024 214.34.027 61.65-.054c5.97-.005 25.02-.364 30.12.407-10.22 1.252-38.77.537-50.53.525l-98.29-.075-333.06.005-1090.83-.263z"/><path fill="#66cbcf" d="M422.891 1195.54c47.94 12.86 131.307 7.09 174.648-13.02 55.367-25.69 97.469-59.15 162.495-55.23 72.935 1.05 87.939 23.04 146.459 50.26 26.052 12.18 53.962 19.9 82.569 22.85 49.218 5.12 108.908.04 153.058-21.23 61.11-29.45 80.15-51.34 151.88-51.86 75.81-.56 98.05 27.91 163.1 56.18 37.12 16.14 86.14 20.38 127.09 18.15a261.69 261.69 0 0 0 97.91-23.94c50.11-23.17 68.09-44.65 128.31-49.49l-.19 183.79-1377.867.05c-2.252-38.09-7.118-77.07-9.462-116.51z"/><path d="M237.631 864.751c57.543 3.294 82.91 25.499 132.509 49.798 18.472 9.049 38.157 14.844 58.218 18.879-3.766 53.401-8.088 106.172-8.031 159.742.006 5.26-.006 13.29-.773 18.32-17.902-6.5-35.962-16.64-52.72-25.93-45.667-25.3-77.586-34.35-129.197-37.71l-.006-183.099zm-.235 262.979c17.102 1.43 37.792 4.12 53.705 10.6 46.997 19.14 80.525 46.41 131.79 57.21 2.344 39.44 7.21 78.42 9.462 116.51-63.636 1.14-130.787.03-194.719.04l-.238-184.36z" fill="#26a2cb"/></svg>